<svg version="1.1" viewBox="0.0 0.0 960.0 720.0" fill="none" stroke="none" stroke-linecap="square" stroke-miterlimit="10" xmlns:xlink="http://www.w3.org/1999/xlink" xmlns="http://www.w3.org/2000/svg"><clipPath id="p.0"><path d="m0 0l960.0 0l0 720.0l-960.0 0l0 -720.0z" clip-rule="nonzero"/></clipPath><g clip-path="url(#p.0)"><path fill="#000000" fill-opacity="0.0" d="m0 0l960.0 0l0 720.0l-960.0 0z" fill-rule="evenodd"/><path fill="#cfe2f3" d="m206.2441 143.92389l0 0c0 -15.568344 13.283386 -28.18898 29.669296 -28.18898l0 0c7.8687744 0 15.415283 2.969902 20.97934 8.256363c5.564087 5.2864532 8.689941 12.456436 8.689941 19.932617l0 0c0 15.568344 -13.283386 28.188965 -29.669281 28.188965l0 0c-16.38591 0 -29.669296 -12.620621 -29.669296 -28.188965z" fill-rule="evenodd"/><path stroke="#000000" stroke-width="1.0" stroke-linejoin="round" stroke-linecap="butt" d="m206.2441 143.92389l0 0c0 -15.568344 13.283386 -28.18898 29.669296 -28.18898l0 0c7.8687744 0 15.415283 2.969902 20.97934 8.256363c5.564087 5.2864532 8.689941 12.456436 8.689941 19.932617l0 0c0 15.568344 -13.283386 28.188965 -29.669281 28.188965l0 0c-16.38591 0 -29.669296 -12.620621 -29.669296 -28.188965z" fill-rule="evenodd"/><path fill="#000000" d="m237.67865 150.84389l-1.640625 0l0 -10.453125q-0.59375 0.5625 -1.5625 1.140625q-0.953125 0.5625 -1.71875 0.84375l0 -1.59375q1.375 -0.640625 2.40625 -1.5625q1.03125 -0.921875 1.453125 -1.78125l1.0625 0l0 13.40625z" fill-rule="nonzero"/><path fill="#cfe2f3" d="m358.24408 143.92389l0 0c0 -15.568344 13.283417 -28.18898 29.669312 -28.18898l0 0c7.8687744 0 15.415283 2.969902 20.97934 8.256363c5.564087 5.2864532 8.689941 12.456436 8.689941 19.932617l0 0c0 15.568344 -13.283386 28.188965 -29.669281 28.188965l0 0c-16.385895 0 -29.669312 -12.620621 -29.669312 -28.188965z" fill-rule="evenodd"/><path stroke="#000000" stroke-width="1.0" stroke-linejoin="round" stroke-linecap="butt" d="m358.24408 143.92389l0 0c0 -15.568344 13.283417 -28.18898 29.669312 -28.18898l0 0c7.8687744 0 15.415283 2.969902 20.97934 8.256363c5.564087 5.2864532 8.689941 12.456436 8.689941 19.932617l0 0c0 15.568344 -13.283386 28.188965 -29.669281 28.188965l0 0c-16.385895 0 -29.669312 -12.620621 -29.669312 -28.188965z" fill-rule="evenodd"/><path fill="#000000" d="m383.50677 147.31264l1.640625 -0.21875q0.28125 1.40625 0.953125 2.015625q0.6875 0.609375 1.65625 0.609375q1.15625 0 1.953125 -0.796875q0.796875 -0.796875 0.796875 -1.984375q0 -1.125 -0.734375 -1.859375q-0.734375 -0.734375 -1.875 -0.734375q-0.46875 0 -1.15625 0.171875l0.1875 -1.4375q0.15625 0.015625 0.265625 0.015625q1.046875 0 1.875 -0.546875q0.84375 -0.546875 0.84375 -1.671875q0 -0.90625 -0.609375 -1.5q-0.609375 -0.59375 -1.578125 -0.59375q-0.953125 0 -1.59375 0.609375q-0.640625 0.59375 -0.8125 1.796875l-1.640625 -0.296875q0.296875 -1.640625 1.359375 -2.546875q1.0625 -0.90625 2.65625 -0.90625q1.09375 0 2.0 0.46875q0.921875 0.46875 1.40625 1.28125q0.5 0.8125 0.5 1.71875q0 0.859375 -0.46875 1.578125q-0.46875 0.703125 -1.375 1.125q1.1875 0.28125 1.84375 1.140625q0.65625 0.859375 0.65625 2.15625q0 1.734375 -1.28125 2.953125q-1.265625 1.21875 -3.21875 1.21875q-1.765625 0 -2.921875 -1.046875q-1.15625 -1.046875 -1.328125 -2.71875z" fill-rule="nonzero"/><path fill="#cfe2f3" d="m270.24408 287.9239l0 0c0 -15.568359 13.283417 -28.188995 29.669312 -28.188995l0 0c7.8687744 0 15.415283 2.9699097 20.97934 8.256378c5.564087 5.2864685 8.689941 12.456421 8.689941 19.932617l0 0c0 15.568329 -13.283386 28.188965 -29.669281 28.188965l0 0c-16.385895 0 -29.669312 -12.620636 -29.669312 -28.188965z" fill-rule="evenodd"/><path stroke="#000000" stroke-width="1.0" stroke-linejoin="round" stroke-linecap="butt" d="m270.24408 287.9239l0 0c0 -15.568359 13.283417 -28.188995 29.669312 -28.188995l0 0c7.8687744 0 15.415283 2.9699097 20.97934 8.256378c5.564087 5.2864685 8.689941 12.456421 8.689941 19.932617l0 0c0 15.568329 -13.283386 28.188965 -29.669281 28.188965l0 0c-16.385895 0 -29.669312 -12.620636 -29.669312 -28.188965z" fill-rule="evenodd"/><path fill="#000000" d="m304.11615 293.26575l0 1.578125l-8.828125 0q-0.015625 -0.59375 0.1875 -1.140625q0.34375 -0.90625 1.078125 -1.78125q0.75 -0.875 2.15625 -2.015625q2.171875 -1.78125 2.9375 -2.828125q0.765625 -1.046875 0.765625 -1.96875q0 -0.984375 -0.703125 -1.640625q-0.6875 -0.671875 -1.8125 -0.671875q-1.1875 0 -1.90625 0.71875q-0.703125 0.703125 -0.703125 1.953125l-1.6875 -0.171875q0.171875 -1.890625 1.296875 -2.875q1.140625 -0.984375 3.03125 -0.984375q1.921875 0 3.046875 1.0625q1.125 1.0625 1.125 2.640625q0 0.796875 -0.328125 1.578125q-0.328125 0.78125 -1.09375 1.640625q-0.75 0.84375 -2.53125 2.34375q-1.46875 1.234375 -1.890625 1.6875q-0.421875 0.4375 -0.6875 0.875l6.546875 0z" fill-rule="nonzero"/><path fill="#cfe2f3" d="m422.24408 271.9239l0 0c0 -15.568359 13.283417 -28.18898 29.669312 -28.18898l0 0c7.8687744 0 15.415283 2.9698944 20.97934 8.256363c5.564087 5.2864685 8.689941 12.456421 8.689941 19.932617l0 0c0 15.568329 -13.283386 28.188965 -29.669281 28.188965l0 0c-16.385895 0 -29.669312 -12.620636 -29.669312 -28.188965z" fill-rule="evenodd"/><path stroke="#000000" stroke-width="1.0" stroke-linejoin="round" stroke-linecap="butt" d="m422.24408 271.9239l0 0c0 -15.568359 13.283417 -28.18898 29.669312 -28.18898l0 0c7.8687744 0 15.415283 2.9698944 20.97934 8.256363c5.564087 5.2864685 8.689941 12.456421 8.689941 19.932617l0 0c0 15.568329 -13.283386 28.188965 -29.669281 28.188965l0 0c-16.385895 0 -29.669312 -12.620636 -29.669312 -28.188965z" fill-rule="evenodd"/><path fill="#000000" d="m447.50677 275.34387l1.71875 -0.140625q0.1875 1.25 0.875 1.890625q0.703125 0.625 1.6875 0.625q1.1875 0 2.0 -0.890625q0.828125 -0.890625 0.828125 -2.359375q0 -1.40625 -0.796875 -2.21875q-0.78125 -0.8125 -2.0625 -0.8125q-0.78125 0 -1.421875 0.359375q-0.640625 0.359375 -1.0 0.9375l-1.546875 -0.203125l1.296875 -6.859375l6.640625 0l0 1.5625l-5.328125 0l-0.71875 3.59375q1.203125 -0.84375 2.515625 -0.84375q1.75 0 2.953125 1.21875q1.203125 1.203125 1.203125 3.109375q0 1.8125 -1.046875 3.140625q-1.296875 1.625 -3.515625 1.625q-1.8125 0 -2.96875 -1.015625q-1.15625 -1.03125 -1.3125 -2.71875z" fill-rule="nonzero"/><path fill="#cfe2f3" d="m358.24408 360.0l0 0c0 -15.568329 13.283417 -28.188965 29.669312 -28.188965l0 0c7.8687744 0 15.415283 2.9698792 20.97934 8.256348c5.564087 5.2864685 8.689941 12.456421 8.689941 19.932617l0 0c0 15.568329 -13.283386 28.188965 -29.669281 28.188965l0 0c-16.385895 0 -29.669312 -12.620636 -29.669312 -28.188965z" fill-rule="evenodd"/><path stroke="#000000" stroke-width="1.0" stroke-linejoin="round" stroke-linecap="butt" d="m358.24408 360.0l0 0c0 -15.568329 13.283417 -28.188965 29.669312 -28.188965l0 0c7.8687744 0 15.415283 2.9698792 20.97934 8.256348c5.564087 5.2864685 8.689941 12.456421 8.689941 19.932617l0 0c0 15.568329 -13.283386 28.188965 -29.669281 28.188965l0 0c-16.385895 0 -29.669312 -12.620636 -29.669312 -28.188965z" fill-rule="evenodd"/><path fill="#000000" d="m388.75677 366.92l0 -3.203125l-5.796875 0l0 -1.5l6.09375 -8.65625l1.34375 0l0 8.65625l1.796875 0l0 1.5l-1.796875 0l0 3.203125l-1.640625 0zm0 -4.703125l0 -6.015625l-4.1875 6.015625l4.1875 0z" fill-rule="nonzero"/><path fill="#000000" fill-opacity="0.0" d="m256.70078 164.71129l43.212616 95.023605" fill-rule="evenodd"/><path stroke="#000000" stroke-width="1.0" stroke-linejoin="round" stroke-linecap="butt" d="m256.70078 164.71129l43.212616 95.023605" fill-rule="evenodd"/><path fill="#000000" fill-opacity="0.0" d="m320.89273 267.99127l46.04724 -104.12599" fill-rule="evenodd"/><path stroke="#000000" stroke-width="1.0" stroke-linejoin="round" stroke-linecap="butt" d="m320.89273 267.99127l46.04724 -104.12599" fill-rule="evenodd"/><path fill="#000000" fill-opacity="0.0" d="m408.89273 163.8565l43.02362 79.87401" fill-rule="evenodd"/><path stroke="#000000" stroke-width="1.0" stroke-linejoin="round" stroke-linecap="butt" d="m408.89273 163.8565l43.02362 79.87401" fill-rule="evenodd"/><path fill="#000000" fill-opacity="0.0" d="m430.93402 291.8565l-22.047241 48.22046" fill-rule="evenodd"/><path stroke="#000000" stroke-width="1.0" stroke-linejoin="round" stroke-linecap="butt" d="m430.93402 291.8565l-22.047241 48.22046" fill-rule="evenodd"/><path fill="#000000" fill-opacity="0.0" d="m366.93402 340.06738l-46.04724 -32.22046" fill-rule="evenodd"/><path stroke="#000000" stroke-width="1.0" stroke-linejoin="round" stroke-linecap="butt" d="m366.93402 340.06738l-46.04724 -32.22046" fill-rule="evenodd"/><path fill="#000000" fill-opacity="0.0" d="m265.58267 143.92389l92.66141 0" fill-rule="evenodd"/><path stroke="#000000" stroke-width="1.0" stroke-linejoin="round" stroke-linecap="butt" d="m265.58267 143.92389l92.66141 0" fill-rule="evenodd"/><path fill="#000000" fill-opacity="0.0" d="m387.9134 331.81104l0 -159.68504" fill-rule="evenodd"/><path stroke="#000000" stroke-width="1.0" stroke-linejoin="round" stroke-linecap="butt" d="m387.9134 331.81104l0 -159.68504" fill-rule="evenodd"/></g></svg>