<svg version="1.1" viewBox="0.0 0.0 960.0 720.0" fill="none" stroke="none" stroke-linecap="square" stroke-miterlimit="10" xmlns:xlink="http://www.w3.org/1999/xlink" xmlns="http://www.w3.org/2000/svg"><clipPath id="p.0"><path d="m0 0l960.0 0l0 720.0l-960.0 0l0 -720.0z" clip-rule="nonzero"/></clipPath><g clip-path="url(#p.0)"><path fill="#000000" fill-opacity="0.0" d="m0 0l960.0 0l0 720.0l-960.0 0z" fill-rule="evenodd"/><path fill="#cfe2f3" d="m450.33072 96.95276l0 0c0 -15.568344 13.283386 -28.18898 29.669281 -28.18898l0 0c7.8687744 0 15.415283 2.969902 20.97937 8.256363c5.5640564 5.2864532 8.689911 12.456436 8.689911 19.932617l0 0c0 15.5683365 -13.283386 28.188972 -29.669281 28.188972l0 0c-16.385895 0 -29.669281 -12.620636 -29.669281 -28.188972z" fill-rule="evenodd"/><path stroke="#000000" stroke-width="1.0" stroke-linejoin="round" stroke-linecap="butt" d="m450.33072 96.95276l0 0c0 -15.568344 13.283386 -28.18898 29.669281 -28.18898l0 0c7.8687744 0 15.415283 2.969902 20.97937 8.256363c5.5640564 5.2864532 8.689911 12.456436 8.689911 19.932617l0 0c0 15.5683365 -13.283386 28.188972 -29.669281 28.188972l0 0c-16.385895 0 -29.669281 -12.620636 -29.669281 -28.188972z" fill-rule="evenodd"/><path fill="#000000" d="m484.20276 102.29463l0 1.578125l-8.828125 0q-0.015625 -0.59375 0.1875 -1.140625q0.34375 -0.90625 1.078125 -1.78125q0.75 -0.875 2.15625 -2.015625q2.171875 -1.78125 2.9375 -2.828125q0.765625 -1.046875 0.765625 -1.96875q0 -0.984375 -0.703125 -1.640625q-0.6875 -0.671875 -1.8125 -0.671875q-1.1875 0 -1.90625 0.71875q-0.703125 0.703125 -0.703125 1.953125l-1.6875 -0.171875q0.171875 -1.890625 1.296875 -2.875q1.140625 -0.984375 3.03125 -0.984375q1.921875 0 3.046875 1.0625q1.125 1.0625 1.125 2.640625q0 0.796875 -0.328125 1.578125q-0.328125 0.78125 -1.09375 1.640625q-0.75 0.84375 -2.53125 2.34375q-1.46875 1.234375 -1.890625 1.6875q-0.421875 0.4375 -0.6875 0.875l6.546875 0z" fill-rule="nonzero"/><path fill="#cfe2f3" d="m316.02887 188.36482l0 0c0 -15.568329 13.283386 -28.188965 29.669281 -28.188965l0 0c7.868805 0 15.415283 2.9698944 20.97937 8.256363c5.5640564 5.2864532 8.689941 12.456421 8.689941 19.932602l0 0c0 15.568344 -13.283417 28.18898 -29.669312 28.18898l0 0c-16.385895 0 -29.669281 -12.620636 -29.669281 -28.18898z" fill-rule="evenodd"/><path stroke="#000000" stroke-width="1.0" stroke-linejoin="round" stroke-linecap="butt" d="m316.02887 188.36482l0 0c0 -15.568329 13.283386 -28.188965 29.669281 -28.188965l0 0c7.868805 0 15.415283 2.9698944 20.97937 8.256363c5.5640564 5.2864532 8.689941 12.456421 8.689941 19.932602l0 0c0 15.568344 -13.283417 28.18898 -29.669312 28.18898l0 0c-16.385895 0 -29.669281 -12.620636 -29.669281 -28.18898z" fill-rule="evenodd"/><path fill="#000000" d="m341.29156 188.69109q0 -2.359375 0.484375 -3.796875q0.484375 -1.453125 1.4375 -2.234375q0.96875 -0.78125 2.421875 -0.78125q1.078125 0 1.890625 0.4375q0.8125 0.421875 1.328125 1.25q0.53125 0.8125 0.828125 1.984375q0.3125 1.15625 0.3125 3.140625q0 2.359375 -0.484375 3.8125q-0.484375 1.4375 -1.453125 2.234375q-0.953125 0.78125 -2.421875 0.78125q-1.921875 0 -3.03125 -1.390625q-1.3125 -1.671875 -1.3125 -5.4375zm1.671875 0q0 3.296875 0.765625 4.390625q0.78125 1.078125 1.90625 1.078125q1.140625 0 1.90625 -1.09375q0.765625 -1.09375 0.765625 -4.375q0 -3.296875 -0.765625 -4.375q-0.765625 -1.078125 -1.921875 -1.078125q-1.125 0 -1.796875 0.953125q-0.859375 1.21875 -0.859375 4.5z" fill-rule="nonzero"/><path fill="#cfe2f3" d="m577.70605 188.36482l0 0c0 -15.568329 13.283386 -28.188965 29.66925 -28.188965l0 0c7.8688354 0 15.415283 2.9698944 20.97937 8.256363c5.564087 5.2864532 8.689941 12.456421 8.689941 19.932602l0 0c0 15.568344 -13.283386 28.18898 -29.669312 28.18898l0 0c-16.385864 0 -29.66925 -12.620636 -29.66925 -28.18898z" fill-rule="evenodd"/><path stroke="#000000" stroke-width="1.0" stroke-linejoin="round" stroke-linecap="butt" d="m577.70605 188.36482l0 0c0 -15.568329 13.283386 -28.188965 29.66925 -28.188965l0 0c7.8688354 0 15.415283 2.9698944 20.97937 8.256363c5.564087 5.2864532 8.689941 12.456421 8.689941 19.932602l0 0c0 15.568344 -13.283386 28.18898 -29.669312 28.18898l0 0c-16.385864 0 -29.66925 -12.620636 -29.66925 -28.18898z" fill-rule="evenodd"/><path fill="#000000" d="m602.9687 191.75359l1.640625 -0.21875q0.28125 1.40625 0.953125 2.015625q0.6875 0.609375 1.65625 0.609375q1.15625 0 1.953125 -0.796875q0.796875 -0.796875 0.796875 -1.984375q0 -1.125 -0.734375 -1.859375q-0.734375 -0.734375 -1.875 -0.734375q-0.46875 0 -1.15625 0.171875l0.1875 -1.4375q0.15625 0.015625 0.265625 0.015625q1.046875 0 1.875 -0.546875q0.84375 -0.546875 0.84375 -1.671875q0 -0.90625 -0.609375 -1.5q-0.609375 -0.59375 -1.578125 -0.59375q-0.953125 0 -1.59375 0.609375q-0.640625 0.59375 -0.8125 1.796875l-1.640625 -0.296875q0.296875 -1.640625 1.359375 -2.546875q1.0625 -0.90625 2.65625 -0.90625q1.09375 0 2.0 0.46875q0.921875 0.46875 1.40625 1.28125q0.5 0.8125 0.5 1.71875q0 0.859375 -0.46875 1.578125q-0.46875 0.703125 -1.375 1.125q1.1875 0.28125 1.84375 1.140625q0.65625 0.859375 0.65625 2.15625q0 1.734375 -1.28125 2.953125q-1.265625 1.21875 -3.21875 1.21875q-1.765625 0 -2.921875 -1.046875q-1.15625 -1.046875 -1.328125 -2.71875z" fill-rule="nonzero"/><path fill="#cfe2f3" d="m586.3963 340.36484l0 0c0 -15.568359 13.283447 -28.188995 29.669312 -28.188995l0 0c7.8687744 0 15.415283 2.9699097 20.97937 8.256378c5.564087 5.286438 8.689941 12.456421 8.689941 19.932617l0 0c0 15.568329 -13.283386 28.188965 -29.669312 28.188965l0 0c-16.385864 0 -29.669312 -12.620636 -29.669312 -28.188965z" fill-rule="evenodd"/><path stroke="#000000" stroke-width="1.0" stroke-linejoin="round" stroke-linecap="butt" d="m586.3963 340.36484l0 0c0 -15.568359 13.283447 -28.188995 29.669312 -28.188995l0 0c7.8687744 0 15.415283 2.9699097 20.97937 8.256378c5.564087 5.286438 8.689941 12.456421 8.689941 19.932617l0 0c0 15.568329 -13.283386 28.188965 -29.669312 28.188965l0 0c-16.385864 0 -29.669312 -12.620636 -29.669312 -28.188965z" fill-rule="evenodd"/><path fill="#000000" d="m617.8309 347.28482l-1.640625 0l0 -10.453125q-0.59375 0.5625 -1.5625 1.140625q-0.953125 0.5625 -1.71875 0.84375l0 -1.59375q1.375 -0.640625 2.40625 -1.5625q1.03125 -0.921875 1.453125 -1.78125l1.0625 0l0 13.40625z" fill-rule="nonzero"/><path fill="#cfe2f3" d="m345.70602 348.62204l0 0c0 -15.568329 13.283417 -28.188965 29.669312 -28.188965l0 0c7.8687744 0 15.415283 2.9699097 20.97934 8.256348c5.564087 5.2864685 8.689941 12.456451 8.689941 19.932617l0 0c0 15.568359 -13.283386 28.188995 -29.669281 28.188995l0 0c-16.385895 0 -29.669312 -12.620636 -29.669312 -28.188995z" fill-rule="evenodd"/><path stroke="#000000" stroke-width="1.0" stroke-linejoin="round" stroke-linecap="butt" d="m345.70602 348.62204l0 0c0 -15.568329 13.283417 -28.188965 29.669312 -28.188965l0 0c7.8687744 0 15.415283 2.9699097 20.97934 8.256348c5.564087 5.2864685 8.689941 12.456451 8.689941 19.932617l0 0c0 15.568359 -13.283386 28.188995 -29.669281 28.188995l0 0c-16.385895 0 -29.669312 -12.620636 -29.669312 -28.188995z" fill-rule="evenodd"/><path fill="#000000" d="m376.21872 355.54205l0 -3.203125l-5.796875 0l0 -1.5l6.09375 -8.65625l1.34375 0l0 8.65625l1.796875 0l0 1.5l-1.796875 0l0 3.203125l-1.640625 0zm0 -4.703125l0 -6.015625l-4.1875 6.015625l4.1875 0z" fill-rule="nonzero"/><path fill="#cfe2f3" d="m489.70602 428.62204l0 0c0 -15.568329 13.283417 -28.188965 29.669281 -28.188965l0 0c7.8688354 0 15.415283 2.9699097 20.97937 8.256348c5.564087 5.2864685 8.689941 12.456451 8.689941 19.932617l0 0c0 15.568359 -13.283386 28.188995 -29.669312 28.188995l0 0c-16.385864 0 -29.669281 -12.620636 -29.669281 -28.188995z" fill-rule="evenodd"/><path stroke="#000000" stroke-width="1.0" stroke-linejoin="round" stroke-linecap="butt" d="m489.70602 428.62204l0 0c0 -15.568329 13.283417 -28.188965 29.669281 -28.188965l0 0c7.8688354 0 15.415283 2.9699097 20.97937 8.256348c5.564087 5.2864685 8.689941 12.456451 8.689941 19.932617l0 0c0 15.568359 -13.283386 28.188995 -29.669312 28.188995l0 0c-16.385864 0 -29.669281 -12.620636 -29.669281 -28.188995z" fill-rule="evenodd"/><path fill="#000000" d="m514.9687 432.04205l1.71875 -0.140625q0.1875 1.25 0.875 1.890625q0.703125 0.625 1.6875 0.625q1.1875 0 2.0 -0.890625q0.828125 -0.890625 0.828125 -2.359375q0 -1.40625 -0.796875 -2.21875q-0.78125 -0.8125 -2.0625 -0.8125q-0.78125 0 -1.421875 0.359375q-0.640625 0.359375 -1.0 0.9375l-1.546875 -0.203125l1.296875 -6.859375l6.640625 0l0 1.5625l-5.328125 0l-0.71875 3.59375q1.203125 -0.84375 2.515625 -0.84375q1.75 0 2.953125 1.21875q1.203125 1.203125 1.203125 3.109375q0 1.8125 -1.046875 3.140625q-1.296875 1.625 -3.515625 1.625q-1.8125 0 -2.96875 -1.015625q-1.15625 -1.03125 -1.3125 -2.71875z" fill-rule="nonzero"/><path fill="#000000" fill-opacity="0.0" d="m366.67752 168.43222l83.653534 -71.46458" fill-rule="evenodd"/><path stroke="#000000" stroke-width="1.0" stroke-linejoin="round" stroke-linecap="butt" d="m366.67752 168.4322l79.09158 -67.567314" fill-rule="evenodd"/><path fill="#000000" stroke="#000000" stroke-width="1.0" stroke-linecap="butt" d="m446.84198 102.12074l2.3775635 -4.203537l-4.523285 1.6918259z" fill-rule="evenodd"/><path fill="#000000" fill-opacity="0.0" d="m366.67752 208.29744l219.71652 132.063" fill-rule="evenodd"/><path stroke="#000000" stroke-width="1.0" stroke-linejoin="round" stroke-linecap="butt" d="m366.67752 208.29745l214.574 128.97202" fill-rule="evenodd"/><path fill="#000000" stroke="#000000" stroke-width="1.0" stroke-linecap="butt" d="m580.40063 338.68515l4.7404785 0.9221802l-3.0386963 -3.7535706z" fill-rule="evenodd"/><path fill="#000000" fill-opacity="0.0" d="m577.70605 188.36482l-172.66144 160.25197" fill-rule="evenodd"/><path stroke="#000000" stroke-width="1.0" stroke-linejoin="round" stroke-linecap="butt" d="m577.70605 188.36482l-168.2637 156.17033" fill-rule="evenodd"/><path fill="#000000" stroke="#000000" stroke-width="1.0" stroke-linecap="butt" d="m408.31873 343.3245l-2.2026062 4.297821l4.4498596 -1.8765259z" fill-rule="evenodd"/><path fill="#000000" fill-opacity="0.0" d="m480.00525 125.15748l39.370056 275.2756" fill-rule="evenodd"/><path stroke="#000000" stroke-width="1.0" stroke-linejoin="round" stroke-linecap="butt" d="m480.00525 125.15748l38.52057 269.33606" fill-rule="evenodd"/><path fill="#000000" stroke="#000000" stroke-width="1.0" stroke-linecap="butt" d="m516.89075 394.72736l2.277588 4.258545l0.99261475 -4.7262573z" fill-rule="evenodd"/><path fill="#000000" fill-opacity="0.0" d="m509.66928 96.95276l97.700775 63.2126" fill-rule="evenodd"/><path stroke="#000000" stroke-width="1.0" stroke-linejoin="round" stroke-linecap="butt" d="m509.66928 96.95276l92.66324 59.953293" fill-rule="evenodd"/><path fill="#000000" stroke="#000000" stroke-width="1.0" stroke-linecap="butt" d="m601.4353 158.29283l4.7073975 1.0783844l-2.9129028 -3.851944z" fill-rule="evenodd"/><path fill="#000000" fill-opacity="0.0" d="m616.0656 312.17584l-8.692932 -95.62204" fill-rule="evenodd"/><path stroke="#000000" stroke-width="1.0" stroke-linejoin="round" stroke-linecap="butt" d="m616.0656 312.17584l-8.149658 -89.64668" fill-rule="evenodd"/><path fill="#000000" stroke="#000000" stroke-width="1.0" stroke-linecap="butt" d="m609.56085 222.37962l-2.0557861 -4.369919l-1.2340698 4.6690063z" fill-rule="evenodd"/><path fill="#000000" fill-opacity="0.0" d="m595.08624 320.43222l-94.11023 -203.55905" fill-rule="evenodd"/><path stroke="#000000" stroke-width="1.0" stroke-linejoin="round" stroke-linecap="butt" d="m595.08624 320.43222l-91.59235 -198.11295" fill-rule="evenodd"/><path fill="#000000" stroke="#000000" stroke-width="1.0" stroke-linecap="butt" d="m504.99313 121.62614l-3.403656 -3.426033l0.40515137 4.812317z" fill-rule="evenodd"/><path fill="#000000" fill-opacity="0.0" d="m396.35468 368.55466l93.35434 60.06299" fill-rule="evenodd"/><path stroke="#000000" stroke-width="1.0" stroke-linejoin="round" stroke-linecap="butt" d="m396.3547 368.55466l88.30847 56.81656" fill-rule="evenodd"/><path fill="#000000" stroke="#000000" stroke-width="1.0" stroke-linecap="butt" d="m483.76947 426.76028l4.710144 1.0663757l-2.9227295 -3.844513z" fill-rule="evenodd"/><path fill="#000000" fill-opacity="0.0" d="m459.02063 116.885376l-83.653534 203.55905" fill-rule="evenodd"/><path stroke="#000000" stroke-width="1.0" stroke-linejoin="round" stroke-linecap="butt" d="m459.02063 116.885376l-81.372925 198.0094" fill-rule="evenodd"/><path fill="#000000" stroke="#000000" stroke-width="1.0" stroke-linecap="butt" d="m376.12 314.26694l-0.1972351 4.8253174l3.2527466 -3.569641z" fill-rule="evenodd"/><path fill="#000000" fill-opacity="0.0" d="m586.396 208.29744l-46.04724 200.37794" fill-rule="evenodd"/><path stroke="#000000" stroke-width="1.0" stroke-linejoin="round" stroke-linecap="butt" d="m586.39594 208.29745l-44.70343 194.5304" fill-rule="evenodd"/><path fill="#000000" stroke="#000000" stroke-width="1.0" stroke-linecap="butt" d="m540.0827 402.4579l0.5934448 4.792755l2.6260986 -4.052887z" fill-rule="evenodd"/><path fill="#000000" fill-opacity="0.0" d="m375.36746 107.154854l31.40158 0l0 22.047249l-31.40158 0z" fill-rule="evenodd"/><path fill="#000000" d="m385.1487 130.54361l1.640625 -0.21875q0.28125 1.40625 0.953125 2.015625q0.6875 0.609375 1.65625 0.609375q1.15625 0 1.953125 -0.796875q0.796875 -0.796875 0.796875 -1.984375q0 -1.125 -0.734375 -1.859375q-0.734375 -0.7343826 -1.875 -0.7343826q-0.46875 0 -1.15625 0.171875l0.1875 -1.4375q0.15625 0.015625 0.265625 0.015625q1.046875 0 1.875 -0.546875q0.84375 -0.546875 0.84375 -1.671875q0 -0.90625 -0.609375 -1.5q-0.609375 -0.59375 -1.578125 -0.59375q-0.953125 0 -1.59375 0.609375q-0.640625 0.59375 -0.8125 1.796875l-1.640625 -0.296875q0.296875 -1.640625 1.359375 -2.546875q1.0625 -0.90625 2.65625 -0.90625q1.09375 0 2.0 0.46875q0.921875 0.46875 1.40625 1.28125q0.5 0.8125 0.5 1.71875q0 0.859375 -0.46875 1.578125q-0.46875 0.703125 -1.375 1.125q1.1875 0.28125 1.84375 1.140625q0.65625 0.8593826 0.65625 2.1562576q0 1.734375 -1.28125 2.953125q-1.265625 1.21875 -3.21875 1.21875q-1.765625 0 -2.921875 -1.046875q-1.15625 -1.046875 -1.328125 -2.71875z" fill-rule="nonzero"/><path fill="#000000" fill-opacity="0.0" d="m549.1732 93.944885l31.401611 0l0 22.047241l-31.401611 0z" fill-rule="evenodd"/><path fill="#000000" d="m559.06384 109.25551l0 -1.578125l8.640625 0l0 1.28125q-1.28125 1.359375 -2.53125 3.609375q-1.25 2.25 -1.9375 4.625q-0.484375 1.671875 -0.625 3.671875l-1.6875 0q0.03125 -1.578125 0.625 -3.8125q0.59375 -2.234375 1.6875 -4.296875q1.109375 -2.078125 2.359375 -3.5l-6.53125 0z" fill-rule="nonzero"/><path fill="#000000" fill-opacity="0.0" d="m405.04462 158.05511l19.24411 0l0 22.047241l-19.24411 0z" fill-rule="evenodd"/><path fill="#000000" d="m420.07587 184.97511l0 -3.203125l-5.796875 0l0 -1.5l6.09375 -8.65625l1.34375 0l0 8.65625l1.796875 0l0 1.5l-1.796875 0l0 3.203125l-1.640625 0zm0 -4.703125l0 -6.015625l-4.1875 6.015625l4.1875 0z" fill-rule="nonzero"/><path fill="#000000" fill-opacity="0.0" d="m460.83597 168.43307l31.40155 0l0 46.960632l-31.40155 0z" fill-rule="evenodd"/><path fill="#000000" d="m479.2266 193.77495l0 1.578125l-8.828125 0q-0.015625 -0.59375 0.1875 -1.140625q0.34375 -0.90625 1.078125 -1.78125q0.75 -0.875 2.15625 -2.015625q2.171875 -1.78125 2.9375 -2.828125q0.765625 -1.046875 0.765625 -1.96875q0 -0.984375 -0.703125 -1.640625q-0.6875 -0.671875 -1.8125 -0.671875q-1.1875 0 -1.90625 0.71875q-0.703125 0.703125 -0.703125 1.953125l-1.6875 -0.171875q0.171875 -1.890625 1.296875 -2.875q1.140625 -0.984375 3.03125 -0.984375q1.921875 0 3.046875 1.0625q1.125 1.0625 1.125 2.640625q0 0.796875 -0.328125 1.578125q-0.328125 0.78125 -1.09375 1.640625q-0.75 0.84375 -2.53125 2.34375q-1.46875 1.234375 -1.890625 1.6875q-0.421875 0.4375 -0.6875 0.875l6.546875 0z" fill-rule="nonzero"/><path fill="#000000" fill-opacity="0.0" d="m498.67847 195.18373l39.370117 0l0 46.960632l-39.370117 0z" fill-rule="evenodd"/><path fill="#000000" d="m508.27222 218.0881l0 -1.640625l5.03125 0l0 1.640625l-5.03125 0zm12.5720825 4.015625l-1.640625 0l0 -10.453125q-0.59375 0.5625 -1.5625 1.140625q-0.953125 0.5625 -1.71875 0.84375l0 -1.59375q1.375 -0.640625 2.40625 -1.5625q1.03125 -0.921875 1.453125 -1.78125l1.0625 0l0 13.40625z" fill-rule="nonzero"/><path fill="#000000" fill-opacity="0.0" d="m530.09186 142.38583l31.40155 0l0 37.700775l-31.40155 0z" fill-rule="evenodd"/><path fill="#000000" d="m548.4825 167.7277l0 1.578125l-8.828125 0q-0.015625 -0.59375 0.1875 -1.140625q0.34375 -0.90625 1.078125 -1.78125q0.75 -0.875 2.15625 -2.015625q2.171875 -1.78125 2.9375 -2.828125q0.765625 -1.046875 0.765625 -1.96875q0 -0.984375 -0.703125 -1.640625q-0.6875 -0.671875 -1.8125 -0.671875q-1.1875 0 -1.90625 0.71875q-0.703125 0.703125 -0.703125 1.953125l-1.6875 -0.171875q0.171875 -1.890625 1.296875 -2.875q1.140625 -0.984375 3.03125 -0.984375q1.921875 0 3.046875 1.0625q1.125 1.0625 1.125 2.640625q0 0.796875 -0.328125 1.578125q-0.328125 0.78125 -1.09375 1.640625q-0.75 0.84375 -2.53125 2.34375q-1.46875 1.234375 -1.890625 1.6875q-0.421875 0.4375 -0.6875 0.875l6.546875 0z" fill-rule="nonzero"/><path fill="#000000" fill-opacity="0.0" d="m616.0656 228.99213l31.40155 0l0 46.960632l-31.40155 0z" fill-rule="evenodd"/><path fill="#000000" d="m634.34686 245.834l-1.625 0.125q-0.21875 -0.96875 -0.625 -1.40625q-0.65625 -0.703125 -1.640625 -0.703125q-0.78125 0 -1.375 0.4375q-0.765625 0.5625 -1.21875 1.65625q-0.453125 1.078125 -0.46875 3.078125q0.59375 -0.890625 1.453125 -1.328125q0.859375 -0.4375 1.796875 -0.4375q1.640625 0 2.78125 1.203125q1.15625 1.203125 1.15625 3.109375q0 1.265625 -0.546875 2.34375q-0.53125 1.078125 -1.484375 1.65625q-0.9375 0.57810974 -2.140625 0.57810974q-2.0625 0 -3.359375 -1.4999847q-1.28125 -1.515625 -1.28125 -4.984375q0 -3.875 1.421875 -5.625q1.25 -1.53125 3.375 -1.53125q1.5625 0 2.5625 0.890625q1.015625 0.875 1.21875 2.4375zm-6.6875 5.75q0 0.84375 0.359375 1.625q0.359375 0.765625 1.0 1.171875q0.640625 0.40625 1.359375 0.40625q1.03125 0 1.78125 -0.828125q0.75 -0.84375 0.75 -2.28125q0 -1.390625 -0.734375 -2.1875q-0.734375 -0.796875 -1.859375 -0.796875q-1.109375 0 -1.890625 0.796875q-0.765625 0.796875 -0.765625 2.09375z" fill-rule="nonzero"/><path fill="#000000" fill-opacity="0.0" d="m552.0197 356.89502l31.40155 0l0 46.960632l-31.40155 0z" fill-rule="evenodd"/><path fill="#000000" d="m567.97284 383.815l-1.640625 0l0 -10.453125q-0.59375 0.5625 -1.5625 1.140625q-0.953125 0.5625 -1.71875 0.84375l0 -1.59375q1.375 -0.640625 2.40625 -1.5625q1.03125 -0.921875 1.453125 -1.78125l1.0625 0l0 13.40625z" fill-rule="nonzero"/><path fill="#000000" fill-opacity="0.0" d="m407.9895 390.4567l39.370087 0l0 46.960632l-39.370087 0z" fill-rule="evenodd"/><path fill="#000000" d="m417.58325 413.36105l0 -1.640625l5.03125 0l0 1.640625l-5.03125 0zm15.009552 2.4375l0 1.578125l-8.828125 0q-0.015625 -0.59375 0.1875 -1.140625q0.34375 -0.90625 1.078125 -1.78125q0.75 -0.875 2.15625 -2.015625q2.171875 -1.78125 2.9375 -2.828125q0.765625 -1.046875 0.765625 -1.96875q0 -0.984375 -0.703125 -1.640625q-0.6875 -0.671875 -1.8125 -0.671875q-1.1875 0 -1.90625 0.71875q-0.703125 0.703125 -0.703125 1.953125l-1.6875 -0.171875q0.171875 -1.890625 1.296875 -2.875q1.140625 -0.984375 3.03125 -0.984375q1.921875 0 3.046875 1.0625q1.125 1.0625 1.125 2.640625q0 0.796875 -0.328125 1.578125q-0.328125 0.78125 -1.09375 1.640625q-0.75 0.84375 -2.53125 2.34375q-1.46875 1.234375 -1.890625 1.6875q-0.421875 0.4375 -0.6875 0.875l6.546875 0z" fill-rule="nonzero"/><path fill="#000000" fill-opacity="0.0" d="m527.15485 283.30185l31.401611 0l0 22.047241l-31.401611 0z" fill-rule="evenodd"/><path fill="#000000" d="m536.9361 306.72183l1.71875 -0.140625q0.1875 1.25 0.875 1.890625q0.703125 0.625 1.6875 0.625q1.1875 0 2.0 -0.890625q0.828125 -0.890625 0.828125 -2.359375q0 -1.40625 -0.796875 -2.21875q-0.78125 -0.8125 -2.0625 -0.8125q-0.78125 0 -1.421875 0.359375q-0.640625 0.359375 -1.0 0.9375l-1.546875 -0.203125l1.296875 -6.859375l6.640625 0l0 1.5625l-5.328125 0l-0.71875 3.59375q1.203125 -0.84375 2.515625 -0.84375q1.75 0 2.953125 1.21875q1.203125 1.203125 1.203125 3.109375q0 1.8125 -1.046875 3.140625q-1.296875 1.625 -3.515625 1.625q-1.8125 0 -2.96875 -1.015625q-1.15625 -1.03125 -1.3125 -2.71875z" fill-rule="nonzero"/></g></svg>